<mxfile host="app.diagrams.net" agent="Mozilla/5.0 (Windows NT 10.0; Win64; x64) AppleWebKit/537.36 (KHTML, like Gecko) Chrome/136.0.0.0 Safari/537.36 Edg/136.0.0.0" version="26.2.14">
  <diagram name="第 1 页" id="i4qYyxMLu9p1aR7LU7I-">
    <mxGraphModel dx="1500" dy="826" grid="1" gridSize="10" guides="1" tooltips="1" connect="1" arrows="1" fold="1" page="1" pageScale="1" pageWidth="827" pageHeight="1169" math="0" shadow="0">
      <root>
        <mxCell id="0" />
        <mxCell id="1" parent="0" />
        <mxCell id="GGfPHSFVa5TLCeVPOStA-1" value="" style="rounded=0;whiteSpace=wrap;html=1;" vertex="1" parent="1">
          <mxGeometry x="140" y="330" width="480" height="270" as="geometry" />
        </mxCell>
        <mxCell id="GGfPHSFVa5TLCeVPOStA-2" value="&lt;font style=&quot;font-size: 16px;&quot;&gt;S&lt;/font&gt;&lt;div&gt;&lt;font style=&quot;font-size: 16px;&quot;&gt;T&lt;/font&gt;&lt;/div&gt;&lt;div&gt;&lt;font style=&quot;font-size: 16px;&quot;&gt;M&lt;/font&gt;&lt;/div&gt;&lt;div&gt;&lt;font style=&quot;font-size: 16px;&quot;&gt;3&lt;/font&gt;&lt;/div&gt;&lt;div&gt;&lt;font style=&quot;font-size: 16px;&quot;&gt;2&lt;/font&gt;&lt;/div&gt;&lt;div&gt;&lt;font style=&quot;font-size: 16px;&quot;&gt;单&lt;/font&gt;&lt;/div&gt;&lt;div&gt;&lt;font style=&quot;font-size: 16px;&quot;&gt;片&lt;/font&gt;&lt;/div&gt;&lt;div&gt;&lt;font style=&quot;font-size: 16px;&quot;&gt;机&lt;/font&gt;&lt;/div&gt;" style="rounded=0;whiteSpace=wrap;html=1;" vertex="1" parent="1">
          <mxGeometry x="450" y="360" width="110" height="210" as="geometry" />
        </mxCell>
        <mxCell id="GGfPHSFVa5TLCeVPOStA-3" value="&lt;span style=&quot;font-size: 16px;&quot;&gt;火&lt;/span&gt;&lt;div&gt;&lt;span style=&quot;font-size: 16px;&quot;&gt;焰&lt;/span&gt;&lt;/div&gt;&lt;div&gt;&lt;span style=&quot;font-size: 16px;&quot;&gt;传&lt;/span&gt;&lt;/div&gt;&lt;div&gt;&lt;span style=&quot;font-size: 16px;&quot;&gt;感&lt;/span&gt;&lt;/div&gt;&lt;div&gt;&lt;span style=&quot;font-size: 16px;&quot;&gt;器&lt;/span&gt;&lt;/div&gt;" style="rounded=0;whiteSpace=wrap;html=1;" vertex="1" parent="1">
          <mxGeometry x="190" y="362.5" width="110" height="205" as="geometry" />
        </mxCell>
        <mxCell id="GGfPHSFVa5TLCeVPOStA-4" value="" style="rounded=0;whiteSpace=wrap;html=1;" vertex="1" parent="1">
          <mxGeometry x="280" y="426" width="20" height="20" as="geometry" />
        </mxCell>
        <mxCell id="GGfPHSFVa5TLCeVPOStA-5" value="" style="rounded=0;whiteSpace=wrap;html=1;direction=south;" vertex="1" parent="1">
          <mxGeometry x="280" y="474" width="20" height="20" as="geometry" />
        </mxCell>
        <mxCell id="GGfPHSFVa5TLCeVPOStA-6" value="" style="rounded=0;whiteSpace=wrap;html=1;" vertex="1" parent="1">
          <mxGeometry x="280" y="530" width="20" height="20" as="geometry" />
        </mxCell>
        <mxCell id="GGfPHSFVa5TLCeVPOStA-7" value="" style="rounded=0;whiteSpace=wrap;html=1;" vertex="1" parent="1">
          <mxGeometry x="450" y="426" width="20" height="20" as="geometry" />
        </mxCell>
        <mxCell id="GGfPHSFVa5TLCeVPOStA-8" value="" style="rounded=0;whiteSpace=wrap;html=1;" vertex="1" parent="1">
          <mxGeometry x="450" y="476" width="20" height="20" as="geometry" />
        </mxCell>
        <mxCell id="GGfPHSFVa5TLCeVPOStA-9" value="" style="rounded=0;whiteSpace=wrap;html=1;" vertex="1" parent="1">
          <mxGeometry x="450" y="527" width="20" height="20" as="geometry" />
        </mxCell>
        <mxCell id="GGfPHSFVa5TLCeVPOStA-10" value="" style="endArrow=none;html=1;rounded=0;exitX=1;exitY=0.5;exitDx=0;exitDy=0;entryX=0;entryY=0.5;entryDx=0;entryDy=0;" edge="1" parent="1" source="GGfPHSFVa5TLCeVPOStA-4" target="GGfPHSFVa5TLCeVPOStA-7">
          <mxGeometry width="50" height="50" relative="1" as="geometry">
            <mxPoint x="400" y="450" as="sourcePoint" />
            <mxPoint x="450" y="400" as="targetPoint" />
          </mxGeometry>
        </mxCell>
        <mxCell id="GGfPHSFVa5TLCeVPOStA-11" value="" style="endArrow=none;html=1;rounded=0;exitX=1;exitY=0.5;exitDx=0;exitDy=0;entryX=0;entryY=0.5;entryDx=0;entryDy=0;" edge="1" parent="1">
          <mxGeometry width="50" height="50" relative="1" as="geometry">
            <mxPoint x="300" y="486.5" as="sourcePoint" />
            <mxPoint x="450" y="486.5" as="targetPoint" />
          </mxGeometry>
        </mxCell>
        <mxCell id="GGfPHSFVa5TLCeVPOStA-12" value="" style="endArrow=none;html=1;rounded=0;exitX=1;exitY=0.5;exitDx=0;exitDy=0;entryX=0;entryY=0.5;entryDx=0;entryDy=0;" edge="1" parent="1">
          <mxGeometry width="50" height="50" relative="1" as="geometry">
            <mxPoint x="300" y="538.5" as="sourcePoint" />
            <mxPoint x="450" y="538.5" as="targetPoint" />
          </mxGeometry>
        </mxCell>
        <mxCell id="GGfPHSFVa5TLCeVPOStA-13" value="&lt;span style=&quot;font-size: 16px;&quot;&gt;AO&lt;/span&gt;" style="text;html=1;align=center;verticalAlign=middle;whiteSpace=wrap;rounded=0;" vertex="1" parent="1">
          <mxGeometry x="290" y="369" width="60" height="30" as="geometry" />
        </mxCell>
        <mxCell id="GGfPHSFVa5TLCeVPOStA-14" value="&lt;font style=&quot;font-size: 16px;&quot;&gt;&amp;nbsp; &amp;nbsp;GND&lt;/font&gt;" style="text;html=1;align=center;verticalAlign=middle;whiteSpace=wrap;rounded=0;" vertex="1" parent="1">
          <mxGeometry x="289" y="460" width="60" height="30" as="geometry" />
        </mxCell>
        <mxCell id="GGfPHSFVa5TLCeVPOStA-15" value="&lt;font style=&quot;font-size: 16px;&quot;&gt;VCC&lt;/font&gt;" style="text;html=1;align=center;verticalAlign=middle;whiteSpace=wrap;rounded=0;" vertex="1" parent="1">
          <mxGeometry x="295" y="512" width="60" height="30" as="geometry" />
        </mxCell>
        <mxCell id="GGfPHSFVa5TLCeVPOStA-16" value="&lt;span style=&quot;font-size: 16px;&quot;&gt;D16&lt;/span&gt;" style="text;html=1;align=center;verticalAlign=middle;whiteSpace=wrap;rounded=0;" vertex="1" parent="1">
          <mxGeometry x="396" y="409" width="60" height="30" as="geometry" />
        </mxCell>
        <mxCell id="GGfPHSFVa5TLCeVPOStA-17" value="&lt;span style=&quot;font-size: 16px;&quot;&gt;GND&lt;/span&gt;" style="text;html=1;align=center;verticalAlign=middle;whiteSpace=wrap;rounded=0;" vertex="1" parent="1">
          <mxGeometry x="396" y="461" width="60" height="30" as="geometry" />
        </mxCell>
        <mxCell id="GGfPHSFVa5TLCeVPOStA-18" value="&lt;span style=&quot;font-size: 16px;&quot;&gt;3V3&lt;/span&gt;" style="text;html=1;align=center;verticalAlign=middle;whiteSpace=wrap;rounded=0;" vertex="1" parent="1">
          <mxGeometry x="396" y="512" width="60" height="30" as="geometry" />
        </mxCell>
        <mxCell id="GGfPHSFVa5TLCeVPOStA-19" value="" style="rounded=0;whiteSpace=wrap;html=1;" vertex="1" parent="1">
          <mxGeometry x="280" y="380" width="20" height="20" as="geometry" />
        </mxCell>
        <mxCell id="GGfPHSFVa5TLCeVPOStA-25" value="&lt;span style=&quot;font-size: 16px;&quot;&gt;DO&lt;/span&gt;" style="text;html=1;align=center;verticalAlign=middle;whiteSpace=wrap;rounded=0;" vertex="1" parent="1">
          <mxGeometry x="291" y="410" width="60" height="30" as="geometry" />
        </mxCell>
      </root>
    </mxGraphModel>
  </diagram>
</mxfile>
